<svg width="48" height="48" viewBox="0 0 48 48" fill="none" xmlns="http://www.w3.org/2000/svg">
  <!-- Salesforce Blue Background Circle -->
  <circle cx="24" cy="24" r="24" fill="#00A1E0"/>
  
  <!-- Salesforce Cloud Logo -->
  <g transform="translate(8, 14)">
    <!-- Main cloud shape -->
    <path d="M27.5 12.5c0-2.5-2-4.5-4.5-4.5-1.2 0-2.3.5-3.1 1.3-.6-.3-1.3-.5-2-.5-2.2 0-4 1.8-4 4 0 .4.1.8.2 1.1-.8.5-1.3 1.4-1.3 2.4 0 1.6 1.3 2.9 2.9 2.9h9.9c1.6 0 2.9-1.3 2.9-2.9 0-1-.4-1.9-1.1-2.4.1-.4.1-.8.1-1.4z" fill="white"/>
    
    <!-- Small decorative clouds -->
    <circle cx="6" cy="10" r="1.5" fill="white" opacity="0.8"/>
    <circle cx="26" cy="8" r="1" fill="white" opacity="0.7"/>
    <circle cx="30" cy="16" r="1.2" fill="white" opacity="0.6"/>
  </g>
</svg>