<svg width="24" height="24" viewBox="0 0 24 24" fill="none" xmlns="http://www.w3.org/2000/svg">
  <path d="M12.017 5.5c-1.1 0-2.05.5-2.7 1.3-.45-.2-.95-.3-1.47-.3-1.98 0-3.58 1.6-3.58 3.58 0 .3.04.59.11.87-.66.42-1.1 1.15-1.1 1.98 0 1.29 1.05 2.34 2.34 2.34h6.4c1.29 0 2.34-1.05 2.34-2.34 0-.83-.44-1.56-1.1-1.98.07-.28.11-.57.11-.87 0-1.98-1.6-3.58-3.58-3.58z" fill="#00A1E0"/>
  <circle cx="8.5" cy="10" r="1.5" fill="#ffffff"/>
  <circle cx="12" cy="8.5" r="1" fill="#ffffff"/>
  <circle cx="15" cy="11" r="1.2" fill="#ffffff"/>
</svg>